<svg width="310" height="382" viewBox="0 0 310 382" fill="none" xmlns="http://www.w3.org/2000/svg">
<path d="M86.2998 257.52L92.7998 276.88L101.3 272.52L92.4798 254.22C92.4798 254.22 86.7198 257.2 86.2998 257.52Z" fill="#79E1CF"/>
<path d="M128.38 202.6C139.292 199.52 149.85 195.303 159.88 190.02L209.52 197.82C209.52 197.82 218.6 203.08 219.7 203.24C222.807 202.987 225.918 203.685 228.62 205.24C232.28 207.78 239.6 207.78 241.5 208.1C244.243 208.987 246.865 210.217 249.3 211.76C251.2 212.88 259.64 215.58 261.08 216.54C262.52 217.5 265.84 218.54 266.64 222.54C267.758 227.455 268.428 232.463 268.64 237.5C268.48 241.16 267.54 251.02 266.1 254.84C264.66 258.66 258.46 278.54 258.1 280.84C257.74 283.14 257 298.66 256.1 301.86C255.2 305.06 250.86 321.86 250.1 324.92C249.34 327.98 243.58 343.22 242.62 345.92C241.66 348.62 240.22 353.56 240.62 355.62C241.198 357.852 241.36 360.17 241.1 362.46C240.78 365.02 242.86 377.58 242.22 378.46C241.58 379.34 219.3 380.36 211.52 377.98C203.74 375.6 172.7 378.94 160.12 378.3C147.54 377.66 114.3 377.34 109.54 376.3C104.78 375.26 98.8802 375.04 101.74 371.86C104.6 368.68 104.92 364.22 105.08 359.86C105.499 355.918 106.296 352.028 107.46 348.24L97.4602 279.74L112.14 249.74L128.38 202.6Z" fill="#BED4FC"/>
<path d="M266.48 183C268.98 184.76 268.66 184.38 266.48 184.66C264.3 184.94 263.16 185.02 262.9 186.44C262.687 187.597 262.358 188.728 261.92 189.82C261.818 189.743 261.723 189.657 261.64 189.56C257.64 183.68 260.74 185.2 253.4 184.6C251.94 184.6 255.96 183.24 257.14 180.6C257.58 179.62 255.52 175.96 256.68 176.6C260.2 178.46 259.06 177.78 259.5 178.04C260.82 178.86 264.74 175.64 266.24 175.2C266.7 178.44 263 180.44 266.48 183Z" fill="#FFEAB6"/>
<path d="M296.08 121C297.06 121.36 294.08 122.22 292.86 123.14C290.86 124.62 292.74 125.86 292.58 127.94C291.02 127.28 289.26 123.94 286.94 123.94C282.76 125.34 282.5 125.94 281.76 125.94C282 124.44 285.52 121.4 283.52 119.78C282.74 119.18 280.8 116.32 281.78 116.54C285.66 117.44 285.64 117.62 286.38 117.1C290.28 114.42 290.38 110.3 291.1 115.94C291.72 121 290.46 119 296.08 121Z" fill="#FFEAB6"/>
<path d="M291.22 55.1199C291.12 55.2599 291.04 55.4399 290.9 55.4999C285.86 58.0999 285.52 57.7799 285.82 59.4999C286.58 64.2399 286.4 63.4999 286.28 64.3199C280.94 59.4799 283.06 60.0999 282.28 59.9599C280.8 59.7399 278.04 61.3999 275.38 61.9599C274.46 61.9599 274.82 61.7599 277.12 57.9599C279.66 53.8199 267.3 48.9199 278.02 51.9599C280.02 52.5399 279.66 52.2599 283.3 47.3599C284.46 45.7799 283.72 52.9199 286.42 53.1599C287.36 53.1599 288.66 54.2799 290.8 54.7599C290.958 54.858 291.1 54.9794 291.22 55.1199Z" fill="#FFEAB6"/>
<path d="M84.3401 142.2C94.5001 139.92 84.3401 143.12 86.6001 146.92C88.4601 150.2 89.2201 149.9 85.6001 149.1C81.4001 148.16 83.3001 147.88 78.9401 152.3C78.4201 152.84 79.0401 150.64 79.2001 148.56C79.3801 146.08 74.5801 145.28 73.8801 143.98C74.2201 143.98 73.6201 143.98 76.7001 143.68C80.5001 143.36 78.7001 141.22 80.3601 137.82C81.7201 139 83.1201 142.46 84.3401 142.2Z" fill="#FFEAB6"/>
<path d="M104.78 97.24C105.28 98.08 102.781 97.24 99.2405 95.92C97.2405 95.18 97.7004 93.68 92.9804 100.28C91.1604 102.86 93.8205 94.6 90.8005 93.48C83.9605 90.92 83.9604 91.48 91.4804 88.76C93.1204 88.16 92.3404 84.58 93.4804 81.5C100.62 88.18 94.6004 87.62 105.04 85.22C103.5 89.34 100.3 90.52 102.14 92.66C103.162 94.1007 104.046 95.634 104.78 97.24Z" fill="#FFEAB6"/>
<path d="M159.32 214.62C160.26 219.06 161.18 219.58 160.14 219.42C151.08 218 142.24 209.04 140.42 201.52C140.08 200.1 139.84 200.24 141.36 199.72C145.82 198.14 148.12 196.44 147.56 197.44C146.44 199.44 147.24 202.02 147.1 202.94C146.58 206.4 148.98 209.32 152.44 211.16C152.9 211.4 152.74 211.36 155.8 211.56C157.8 211.08 158.06 210.88 158.3 211.56C158.748 212.542 159.09 213.567 159.32 214.62Z" fill="#FFC6A6"/>
<path d="M230.6 62.3601C236.08 64.6601 237.62 65.0201 233.92 65.9401C231.6 65.3801 231.32 65.3401 229.92 62.5001C229.78 62.1401 230.22 62.2001 230.6 62.3601Z" fill="#E6FCFF"/>
<path d="M241.56 61.4798C241.9 61.4798 241.88 61.7198 241.74 61.8998C240.92 62.9998 239.98 64.6198 238.44 63.6398C234.44 61.0598 226.64 59.8798 228.78 56.5398C229.66 55.1798 228.94 56.7398 233.5 58.6998C238.44 60.8198 240.22 61.6398 241.56 61.4798Z" fill="#E6FCFF"/>
<path d="M243.2 57.16C244.42 57.28 242.92 59.46 240.98 59.42C237.76 58.3 228.06 54.74 230.74 52.62C231.06 52.38 230.9 51.7 231.36 51.74C232.16 51.74 231.1 52.58 236.4 54.7C241.7 56.82 242.16 57 243.2 57.16Z" fill="#E6FCFF"/>
<path d="M233.18 47.46C243.78 55.46 247.98 51.34 244.78 55.06C244.18 55.76 241.86 54.58 240.98 54.26C236.7 52.68 229.56 50.4 233.18 47.46Z" fill="#E6FCFF"/>
<path d="M261.22 33.2402C261.84 33.4202 261.38 34.8802 260.82 34.5802C258.7 33.5002 260.48 33.0002 261.22 33.2402Z" fill="#FFD152"/>
<path d="M240.08 27.7602C238.98 28.6602 238.48 26.9202 239.2 26.7202C239.44 26.6602 239.86 27.4202 240.08 27.7602Z" fill="#FFD152"/>
<path d="M247.62 11.4003C272.4 11.2603 277.74 43.8603 251.98 46.8003C248.62 47.2003 247.98 46.2403 246.94 47.5803C245.06 50.2403 246.28 51.4403 244.74 51.0403C241.597 50.2371 238.6 48.9409 235.86 47.2003C233.32 45.6603 237.86 45.2003 236.54 42.3403C235.22 39.4803 235.16 41.6603 233.08 38.3403C223.46 23.0003 237.1 10.8203 247.62 11.4003ZM259.98 36.8803C261.24 40.0003 265.16 32.6203 262.14 31.6403C259.12 30.6603 258.32 32.7803 257.84 32.6603C253.2 31.6203 256.08 32.2203 253.4 30.8403C252.16 30.2003 251.18 31.7003 250.18 30.2803C248.6 28.0003 249.74 30.2803 242.32 27.3203C241.8 27.1203 241.52 26.4003 241.12 25.9203C240.72 25.4403 240.1 25.4403 239.36 25.2403C237.2 24.6603 235.96 29.0803 239.36 29.6603C239.72 29.6603 239.98 29.6603 239.86 30.2803C239.1 33.5403 243.52 36.2803 242.64 37.8603C241.445 40.1468 240.602 42.6013 240.14 45.1403C240.04 45.7403 240.58 45.4203 240.8 45.6003C241.64 46.3203 242.04 42.5603 244.2 38.5003C245.66 35.8003 241.42 33.1003 241.52 30.7803C241.64 27.8003 242.8 29.5003 245.52 30.3603C247.04 30.8403 248.2 30.3603 248.62 31.3603C248.892 31.8946 249.347 32.3138 249.9 32.5413C250.455 32.7689 251.072 32.7898 251.64 32.6003C253.48 32.1203 253 33.5403 255.16 34.0003C257.32 34.4603 257.3 34.3603 257.3 35.1603C257.3 35.4403 257.3 35.7403 256.96 35.8203C255.932 36.1711 254.952 36.6481 254.04 37.2403C252.9 37.7803 253.4 36.8603 251.5 38.1003C248.64 39.9603 249.12 38.7803 247.92 39.7203C245.92 41.3403 241.54 45.9603 242.94 47.0603C244.34 48.1603 244.5 45.2803 247.34 42.6803C250.18 40.0803 249.74 41.3403 250.7 40.6803C252.7 39.4403 252.98 39.2603 253.28 39.2403C255 39.1003 256.32 37.6603 257.62 37.5403C259.38 37.3803 258.92 35.8403 259.3 35.9603C259.68 36.0803 259.84 36.5403 259.98 36.8803Z" fill="#FFD152"/>
<path d="M88.5609 29.8998C88.8751 30.9389 88.8664 32.0491 88.5359 33.0833C88.2054 34.1173 87.5687 35.0268 86.71 35.6909C85.8512 36.3553 84.8111 36.7431 83.7272 36.8033C82.6432 36.8633 81.5666 36.5929 80.6396 36.0276C79.7127 35.4624 78.9794 34.6289 78.5366 33.6378C78.0937 32.6466 77.9622 31.5443 78.1597 30.4768C78.357 29.4091 78.8741 28.4268 79.6421 27.6594C80.4102 26.8921 81.393 26.3763 82.4609 26.1798C83.7567 25.9459 85.0932 26.1954 86.2176 26.8811C87.3417 27.5666 88.1756 28.6408 88.5609 29.8998Z" fill="#9EDEFF"/>
<path d="M68.7402 47.1199C69.6202 46.1199 70.7402 45.1199 71.2802 46.4599C71.2802 46.4599 53.1002 66.7799 53.0602 66.8199C51.5802 65.7999 51.0002 67.8799 68.7402 47.1199Z" fill="#9EDEFF"/>
<path d="M80.8006 64.8C81.1606 65.66 81.0006 65.34 68.4006 77.82C67.7606 78.48 68.0606 78.46 67.3606 68.44C67.3606 67.5 75.3606 61.24 77.9406 58.16C80.5206 55.08 79.8406 55.6 80.8006 64.8Z" fill="#9EDEFF"/>
<path d="M58.8804 39.0003C60.4204 38.8003 56.0604 42.3403 52.8804 47.1403C52.1604 48.1803 49.4404 51.8203 48.3804 51.9603C48.3804 51.9603 38.3804 52.2603 38.3804 52.2003C38.1004 51.8203 43.4404 46.7203 48.3804 41.0603C49.0004 40.1203 49.0004 40.2803 58.8804 39.0003Z" fill="#9EDEFF"/>
<path d="M107.5 9.98029C107.304 12.8103 106.684 15.5946 105.66 18.2403C100.84 30.0003 101.26 28.9403 99.9404 26.5803C93.8204 15.6803 85.3404 14.5803 86.9404 13.6003C90.9965 10.6135 95.5554 8.37812 100.4 7.00032C107.98 5.00032 107.14 7.00032 107.5 9.98029Z" fill="#FF8E92"/>
<path d="M228.84 156.42C227.3 151.16 231.1 137.9 232.24 134.96C233.787 129.66 234.235 124.1 233.56 118.62C232.76 112.36 228.36 101.76 226.04 96.62C223.72 91.48 213.64 81.96 210.44 79.48C207.24 77 191.9 70.56 186.44 68.16C180.98 65.76 171.16 65.22 171.16 65.22C169.695 63.3863 167.65 62.1047 165.36 61.5852C163.072 61.0655 160.673 61.3387 158.56 62.36C152.56 65.02 151.56 71.42 151.04 71.56C138.64 71.42 136.9 81.42 136.9 81.42C132.3 86.08 133.58 89.02 135.5 92.08C137.42 95.14 143.64 95.22 143.64 95.22C143.64 95.22 181.46 87 193 105C204.54 123 200 152.36 200 152.36L200.32 181.52C202.152 183.26 204.442 184.44 206.922 184.927C209.4 185.412 211.967 185.18 214.32 184.26C207.14 178.78 208.52 175.66 208.52 175.66C219.4 182.38 224.2 175.66 224.2 175.66C222.352 175.298 220.618 174.49 219.155 173.305C217.69 172.118 216.538 170.593 215.8 168.86C219.005 169.832 222.315 170.415 225.66 170.6C234.6 171.46 236.6 166.6 236.6 166.6C236.6 166.6 230.36 161.68 228.84 156.42Z" fill="#FFB564"/>
<path d="M152.24 171C151.682 170.377 151.372 169.568 151.372 168.73C151.372 167.892 151.682 167.083 152.24 166.46C139.94 158.88 142.58 152.62 139.94 153.88C137.11 155.129 134.087 155.887 131 156.12C130.2 156.36 133.22 161.52 139.88 163.74C145.52 165.62 133.88 171 132.1 171.14C129.2 171.36 141.44 178.7 148.38 174.02C148.543 173.888 148.745 173.81 148.953 173.798C149.163 173.787 149.372 173.84 149.548 173.953C149.725 174.067 149.862 174.232 149.94 174.427C150.018 174.622 150.032 174.837 149.98 175.04C149.418 177.835 148.412 180.522 147 183C150.46 183.62 154.42 181.34 157.3 179.38C158.06 178.88 157.78 178 158.08 177.38C158.2 177.1 155.68 175.24 152.24 171Z" fill="#FFB564"/>
<path d="M120.74 195.64C124.4 203.24 124.56 202.86 123.66 203.18L83.0001 216.6C82.5201 216.6 83.1801 217.74 74.1401 199.86C73.6801 198.96 71.2601 200.18 99.8001 190.62C104.76 188.96 109.48 187.3 114.78 185.56C116.14 185.12 115 183.76 120.74 195.64ZM115.28 202.14C114.42 200.66 113.74 201.68 112.68 201.72C112.42 201.72 86.5201 209.72 84.6801 210.6C83.7801 210.98 82.9601 212.18 84.0601 212.46C84.4801 212.56 113.74 203.92 115.28 202.14ZM109 193.7C109.64 193.38 110.08 192.26 108.72 191.98C108.48 191.98 106.94 192.44 104.72 193C96.8201 195 95.7201 196.48 93.6801 196.44C91.3201 196.44 91.4201 197.4 87.9001 198.18C79.9001 199.96 81.2001 200.72 79.0601 200.82C78.8001 200.82 78.3801 201.44 78.3001 201.68C78.1201 202.4 80.3001 202.82 81.3401 202.24C83.5641 201.045 85.9929 200.278 88.5001 199.98C91.8001 199.4 91.6801 198.34 93.6201 198.44C97.3201 197.94 98.7201 196.44 102.08 195.6C105.44 194.76 106.44 195 109 193.7ZM103.74 201C104.075 201.022 104.406 200.923 104.674 200.722C104.942 200.518 105.129 200.228 105.2 199.9C105.2 197.6 97.2001 201.26 93.4201 201.9C89.9801 202.48 82.1601 204.76 81.0201 206C80.2201 206.88 80.6601 207.38 81.7401 207.44C85.7401 206.08 85.2001 205.9 86.6401 205.44C94.9601 203.1 89.2401 205.02 98.0601 202.48C102.06 201.4 102.32 201 103.74 201Z" fill="#FFF5DB"/>
<path d="M88.9998 249.62C89.5998 250.84 87.3998 251.52 86.1198 251.76C85.3598 251.26 87.0398 254.04 68.7198 217.14C56.9998 193.82 56.9998 194.76 58.1998 194.76C64.4398 194.78 54.7798 181 88.9998 249.62Z" fill="#79E1CF"/>
<path d="M62.64 209.3C84.92 254.5 84.5 252.42 83.54 252.76C71.54 256.88 77.54 264.76 76.3 267.46C75.64 266.52 34.3 181.82 34.02 181.12C34.34 181 33.26 180.46 50.78 190.92C56.4 194.28 53.14 190 62.64 209.3Z" fill="#79E1CF"/>
<path d="M124.2 187.14C117.381 173 117.841 173.84 117.281 174.04C111.281 176.18 79.8807 186.6 74.5807 188.34C61.5207 192.66 62.3407 191.82 63.1407 193.38C93.7407 253.2 89.1407 249.82 92.6407 248.88C96.7407 248.78 94.0007 255.6 94.1407 255.96C94.2807 256.32 95.2807 258.82 95.8407 258.62C97.0487 258.095 98.2837 257.633 99.5407 257.24C102.368 256.822 105.121 256.007 107.721 254.82C113.321 251.96 113.401 260.94 106.321 264.4C104.405 265.565 102.349 266.478 100.201 267.12C99.8407 267.12 99.7607 267.4 99.9207 267.72C101.361 270.76 101.001 270.52 101.921 270.52C112.721 270.52 111.441 268.78 118.921 267.2C121.121 266.72 122.04 269.42 121.181 271.2C120.981 271.6 121.321 271.56 121.74 271.44C121.74 271.44 157.74 260.78 159.3 260.28C160.86 259.78 160.12 261.58 124.2 187.14ZM125 204.76C124.68 204.88 87.4807 217.22 83.0007 218.54C81.3407 218.36 81.6607 219.26 72.4007 200C71.1607 197.44 69.5207 198.64 115.101 183.48C116.901 182.88 116.821 183.48 119.321 188.6C126.08 202.48 127.56 203.88 125 204.76Z" fill="#79E1CF"/>
<path d="M232.84 303.88C234.84 306.86 235.3 302.18 218.68 325.64C216.878 328.078 214.928 330.403 212.84 332.6C210.02 335.86 207.76 339.5 203.3 342.92C192.86 350.92 185.04 348.92 175.94 338.26C174.562 335.918 173.582 333.363 173.04 330.7C171.74 325.44 169.42 323.98 167.8 318.02C163.56 302.44 168.18 227.16 168.6 226.78C170.32 225.2 167.64 225.98 163.78 220.94C160.64 216.94 162.1 212.66 155.78 202.38C155.653 202.102 155.465 201.857 155.23 201.662C154.993 201.468 154.717 201.33 154.42 201.26C153.2 201.06 154.2 202.64 154.76 203.88C155.6 205.7 153.88 204.54 153.56 204.52C152.74 204.42 152.18 205.36 154.98 207C155.32 207.2 156.24 207.22 156.48 207.54C156.715 207.987 156.883 208.465 156.98 208.96C156.98 209.24 156.98 209.32 156.72 209.34C154.52 209.6 153.56 210.06 151.74 208.52C150.7 207.64 148.84 205.64 148.88 204.28C148.98 200.28 148.3 198.28 151.74 196.28C153.08 195.54 153.32 194.28 153.4 192.8C153.54 190.08 156.28 191.56 157.4 188.02C159 182.98 166.32 187.42 165.26 184.6C162.02 176.1 151.86 170.6 153.26 168.16C154.58 166.02 159.4 170 160.64 171.44C164.52 175.82 171.64 181.78 172.28 185.94C172.68 188.44 174.42 189.3 176.16 195.14C179.3 205.62 182.86 210.08 183.28 221.66C183.94 239.66 202.52 308.74 202.54 308.8C203.06 309.88 204.3 309.42 204.24 308.3C203.52 294.88 196.04 280.08 197.88 279.98C200.913 279.77 203.948 280.363 206.68 281.7C208.52 283.08 219.88 293.18 220.88 294.12C225.24 298 229.86 299.32 232.84 303.88Z" fill="#FFC6A6"/>
<path d="M210.2 134.22C218.64 127.08 228.62 132.88 220.2 146.36C218.52 149.02 216.84 151.32 209.5 154.36C199.96 158.36 198.82 133.94 198.64 178.36C198.64 190.96 200 194.74 217.7 203.32C218.4 203.66 212.26 208.24 212.22 208.26C201.56 215.9 207.82 212.26 196.02 217C194.02 217.76 185.76 221.18 185.62 219.92C184.02 206.54 180.82 203.48 178.62 195.64C176.62 188.72 174.38 186.96 174.18 184.64C173.9 181.24 166.18 174.64 165.24 173.44C164.9 173.04 164.94 172.88 165.44 172.7C187.98 165.36 184.56 159.78 182.28 161.12C177.64 163.82 156.86 171.26 147.18 160.16C136.56 147.96 136.32 126.3 140.72 127.66C142.538 128.062 144.433 127.958 146.197 127.358C147.958 126.759 149.523 125.687 150.72 124.26C151.88 123.1 150.72 127.52 156.32 128.54C157.48 128.76 157.92 127.34 157.22 127C155.52 126.14 153.92 125.74 153 122.88C152.28 120.66 159.2 122.44 159 117.24C159 115.86 157.66 115.82 157.36 117.06C156.82 119.2 157.36 118.88 154.16 119.48C153.88 119.48 153.8 119.48 153.9 119.14C155.66 113.6 155.1 112.02 156.9 110.68C157.68 110.224 158.568 109.986 159.47 109.991C160.373 109.996 161.258 110.243 162.033 110.707C162.808 111.171 163.443 111.835 163.875 112.629C164.305 113.423 164.515 114.318 164.48 115.22C164.74 121.76 171.08 131.34 178.48 131.06C188.96 130.64 191.98 119.84 193.88 118.66C195.14 117.86 196.46 118.36 201.78 121.62C203.34 122.56 198.8 132.04 206.2 135.28C206.98 135.62 205.28 136.66 207.18 137.28C207.4 137.52 208.48 135.66 210.2 134.22ZM219.78 140.5C220.057 139.941 220.172 139.316 220.112 138.695C220.052 138.075 219.82 137.483 219.442 136.988C219.062 136.492 218.552 136.113 217.968 135.893C217.385 135.672 216.752 135.619 216.14 135.74C212.9 136.44 209.36 140.56 211.08 143.9C211.66 145.04 211.08 147.4 209.88 147.68C207.5 148.2 207.34 147.08 206.76 148.16C206.18 149.24 207.46 150.16 208.76 150.16C212.88 150.16 214.26 145.44 212.94 142.9C212.772 142.623 212.672 142.309 212.65 141.985C212.63 141.661 212.688 141.337 212.82 141.04C213.66 139.04 217.84 135.26 218.24 140.62C218.34 141.18 219.36 141.38 219.78 140.5ZM156.66 142.76C156.66 142.04 156.22 139.94 154.54 139.9C152.54 139.9 152.24 142.88 153.68 144.34C154.54 145.24 156.18 145.44 156.66 142.76Z" fill="#FFC6A6"/>
<path d="M124.34 291.82C130.18 295.82 129.28 292 126.46 310.96C125.093 319.14 123.177 327.218 120.72 335.14C120.16 336.78 121 330.44 120.72 323.72C120.44 314.6 111.04 299.36 110.04 299.72C108.04 300.38 112.04 302.72 116.92 316.24C120.26 325.72 118.5 338.76 116.16 342.24C113.12 346.72 110.48 348.62 102.82 347.46C99.3837 346.942 96.1782 345.417 93.6082 343.079C91.0381 340.74 89.2187 337.692 88.3799 334.32C87.2999 329.88 85.5399 324.76 86.3799 319.38C90.3799 290.58 87.9799 303.92 92.9799 310.8H93.8799C93.5999 308.62 93.3999 308.8 90.7199 300C89.8799 297.2 89.8599 296.8 88.9799 296.24C85.1999 293.88 85.8999 293.5 85.1599 289.5C84.6999 287.08 81.7199 287.72 82.0999 284.32C82.2037 283.362 82.0619 282.392 81.6874 281.504C81.3131 280.614 80.7186 279.835 79.9599 279.24C78.5799 277.94 78.8999 274.1 81.2999 271.6C85.5799 267.16 86.0599 265.18 90.2199 262.1C90.8799 261.6 91.0399 261.78 97.1999 260.34C98.5399 260.02 97.7199 259.7 100.54 259.2C108.08 257.84 109.98 255.2 109.9 256.88C109.727 258.233 109.181 259.51 108.323 260.57C107.464 261.63 106.327 262.43 105.04 262.88C103.419 263.823 101.703 264.595 99.9199 265.18C87.9199 267.9 88.5599 275.94 90.5199 273.64C93.0799 270.64 92.6999 270.02 93.6599 271.78C94.3799 273.1 94.0199 272.5 91.6599 274.62C89.6599 276.42 82.9799 281.82 86.2199 281.34C86.6799 281.34 86.9399 281.04 91.1799 277.48C94.1999 274.92 95.4199 272.62 105.18 272.52C110.8 272.52 115.18 269.94 119 269.2C120.46 268.9 120.08 273.58 109.84 276.34C107.605 277.235 105.287 277.905 102.92 278.34C101.048 278.434 99.2419 279.065 97.7199 280.16C96.3199 281.48 95.2799 282.16 95.9999 282.9C96.2599 283.18 96.4999 283.4 96.8799 283C99.2999 280.48 101.8 280.6 106.88 279.58C108.4 279.28 108.08 278.52 110.5 278.28C112.975 277.855 115.426 277.293 117.84 276.6C119.84 276.6 118.3 280.84 107.84 284.88C102.78 286.88 100.4 287.42 98.6199 290.08C98.1399 290.8 97.7399 291.88 98.6199 292.28C100.08 292.94 99.1999 289.88 104.42 287.98C105.32 287.66 105.54 287.58 105.86 291.58C106.54 300.26 103.34 304.06 103.08 307.58C103.08 308.06 103.64 308.68 104.24 307.94C105.148 305.982 105.956 303.98 106.66 301.94C111.14 288.54 100.66 284.18 114.66 288.48C121 290.44 121.88 290.14 124.34 291.82Z" fill="#FFC6A6"/>
<path d="M91.9604 251.2C94.6804 250.58 92.4204 256.46 87.4404 259.2C83.4404 261.46 83.0404 261.68 82.4804 262.36C81.9204 263.04 82.4804 263.9 83.0004 263.72C86.2804 262.76 91.7204 256.9 80.5604 269.72C77.9204 272.76 78.3204 272.98 77.9604 270.3C77.9842 269.282 78.0779 268.267 78.2404 267.26C78.7404 264.88 76.1204 259.26 78.9204 257.48C82.5439 255.277 86.3924 253.467 90.4004 252.08C90.8824 251.723 91.4062 251.428 91.9604 251.2Z" fill="#FFC6A6"/>
<path d="M141.64 103C141.64 102.72 143.24 95.0003 145.2 92.1803C147.16 89.3603 153.88 82.1803 153.88 82.1803C153.88 82.1803 158.88 84.7803 159.34 80.1803C159.34 80.1803 161.22 81.9603 163.34 78.6603C165.46 75.3603 171 75.7003 173 76.5803C175 77.4603 180.5 78.4603 183.54 83.5603C186.58 88.6603 197 106.44 198.86 109C200.72 111.56 206.62 119 202.24 120.26L194.24 115.7C194.24 115.7 191.46 107.56 184.48 106.4C177.5 105.24 169.2 104.54 165.8 110.4C165.8 110.4 159.1 106.4 154.44 110.66C154.44 110.66 153.38 104.4 147.56 103.42C141.74 102.44 141.64 103 141.64 103Z" fill="#FFC6A6"/>
<path d="M7.70039 141.36L6.76039 135.7L11.2604 139.5L17.0604 136.78L15.1004 143.24L19.2204 149.24L12.3404 148.06L9.62039 154.14L7.88039 146.84L1.90039 144L7.70039 141.36Z" fill="#FFEAB6"/>
<path d="M295.76 139.66C286.42 147.1 285.42 161.36 280.72 157.94C275.34 153.94 271.9 149.76 271.74 143.76C271.74 142.1 270.84 140.48 269.24 141.08C267.94 141.647 266.603 142.128 265.24 142.52C260.66 143.72 260.84 139.56 258.72 141.5C257.867 142.09 257.068 142.76 256.34 143.5C255.68 144.1 256 143.76 254.48 142.62C252.96 141.48 250.76 143.04 251.06 143.92C251.207 144.134 251.42 144.292 251.667 144.368C251.913 144.444 252.18 144.434 252.42 144.34C253.6 143.82 253.78 144.94 254.98 145.9C256.98 147.52 258.56 142.24 260.28 143.46C263.14 145.46 264.44 144.78 268.8 143.3C271.5 142.4 266.32 148.38 277.14 157.56C283.14 162.7 284.16 161.08 288.86 151.68C290.58 148.24 293.96 142.64 297.02 140.76C298.28 139.98 299.76 139.58 302.84 141.76C310.06 146.88 306.84 148.18 305.9 150.4C305.74 150.8 306.6 151.52 306.98 151C309.36 147.74 308.7 148.76 309.2 147.18C308.34 142.22 300.24 136.1 295.76 139.66Z" fill="#000001"/>
<path d="M292.76 114.16C292.6 113.16 292.28 112.16 292.08 111.18C292.057 110.943 291.962 110.719 291.808 110.537C291.655 110.355 291.45 110.224 291.22 110.16C290.44 109.92 290.34 110.36 287.66 113.54C285.28 116.36 286.7 115.88 280.86 114.44C280.538 114.497 280.233 114.626 279.967 114.816C279.7 115.006 279.478 115.254 279.32 115.54C278.92 116.12 278.96 116.34 280.74 119.22C282.26 121.68 282.74 121.08 282.02 122.14C278.24 127.8 276.54 129.66 283.5 127.12C287.5 125.68 287.34 125.46 287.92 126.04C290.62 128.74 294.34 133.3 294.56 129.48C294.655 127.982 294.423 126.48 293.88 125.08C293.6 123.64 299.1 122.9 299.42 120.84C299.447 120.751 299.455 120.657 299.445 120.564C299.433 120.472 299.405 120.382 299.357 120.301C299.31 120.221 299.248 120.151 299.172 120.095C299.097 120.04 299.012 120.001 298.92 119.98C291.3 117.28 293.66 119.92 292.76 114.16ZM292.86 123.1C290.86 124.58 292.74 125.82 292.58 127.9C291.02 127.24 289.26 123.9 286.94 123.9C282.76 125.3 282.5 125.9 281.76 125.9C282 124.4 285.52 121.36 283.52 119.74C282.74 119.14 280.8 116.28 281.78 116.5C285.66 117.4 285.64 117.58 286.38 117.06C290.28 114.38 290.38 110.26 291.1 115.9C291.72 120.98 290.46 118.9 296.08 120.94C297 121.32 294.12 122.18 292.86 123.1Z" fill="#000001"/>
<path d="M267.8 81.6398C267.96 89.6398 272.98 93.6398 264.58 92.5598C251.7 90.8798 249.12 87.7798 250.34 97.1398C250.5 98.3998 250.56 97.9998 244.34 100.52C241.22 101.8 242.64 103.38 244.34 102.72C250.02 100.4 252.52 100.06 252.34 97.5798C251.94 93.1998 251.38 92.4198 253.04 92.6998C264.26 94.4998 266.16 94.9198 268.18 94.6998C276.06 93.8598 266.02 81.3198 271.4 78.6998C275.18 76.8198 276.44 79.8198 294.58 87.0398C295.58 87.4398 296.58 87.8398 296.9 86.8998C297.22 85.9598 296.3 85.8998 295.8 85.6998C277.8 78.3198 279.64 77.9598 275.8 76.6998C274.955 76.3043 274.025 76.1255 273.093 76.1793C272.162 76.2331 271.258 76.518 270.465 77.0081C269.672 77.4983 269.012 78.1783 268.547 78.987C268.082 79.7955 267.825 80.7071 267.8 81.6398Z" fill="#000001"/>
<path d="M275.56 57.1401C274.06 59.6001 270.58 64.96 273.8 64.16C275 63.88 277.3 63.4401 277.8 63.2401C280.86 62.2001 280.96 61.7801 281.38 62.2201C285.38 66.2201 288.24 70.6001 288.04 63.2801C287.92 59.8401 287.16 59.28 288.14 58.9001C289.44 58.34 292.02 56.9001 292.74 56.72C295.2 55.9801 295.32 54.3801 294.26 53.9001C293.2 53.4201 290.26 52.8601 288.44 52.0801C285.54 50.7801 286.78 52.5601 284.92 45.2001C284.877 44.9811 284.765 44.7815 284.6 44.6299C284.437 44.4782 284.228 44.3824 284.007 44.3557C283.785 44.3291 283.56 44.3732 283.365 44.4817C283.17 44.5902 283.015 44.7577 282.92 44.9601C282.68 45.2801 281.84 46.4801 279.28 50.2401C278.68 51.1401 272.94 48.1201 272 49.2401C269.64 51.9801 276.34 55.8601 275.56 57.1401ZM277.96 52.0601C279.96 52.6401 279.6 52.3601 283.24 47.4601C284.4 45.8801 283.66 53.0201 286.36 53.2601C287.28 53.2601 288.6 54.3801 290.74 54.8601C290.912 54.9224 291.073 55.0101 291.22 55.1201C291.12 55.2601 291.04 55.4401 290.9 55.5C285.86 58.1 285.52 57.7801 285.82 59.5001C286.58 64.2401 286.4 63.5001 286.28 64.3201C280.94 59.4801 283.06 60.1001 282.28 59.9601C280.8 59.7401 278.04 61.4 275.38 61.96C274.46 61.96 274.82 61.7601 277.12 57.9601C279.6 53.8601 267.24 49.0001 277.96 52.0601Z" fill="#000001"/>
<path d="M228.28 61.7204C228.19 62.5014 228.265 63.2924 228.5 64.0425C228.733 64.7929 229.123 65.4859 229.64 66.0772C230.158 66.6685 230.793 67.145 231.507 67.4762C232.22 67.8074 232.993 67.986 233.78 68.0004C236.7 68.2604 237.88 65.7604 238.98 66.0004C241.44 66.4804 243.4 63.7604 243.48 61.8204C243.48 60.8004 244.24 60.1204 244.64 59.1404C245.04 58.1604 244.52 57.5404 245.04 57.3804C245.805 56.854 246.422 56.1397 246.832 55.3062C247.242 54.4727 247.43 53.5479 247.38 52.6204C247.38 52.3604 248.06 51.4404 247.38 50.6204C247.24 50.4404 247.92 49.3604 248.08 49.2004C248.24 49.0404 267.28 50.5604 270.62 33.7804C275.5 9.26036 236.12 -0.65962 228.78 22.9004C224.78 35.5804 235.18 42.3004 234.56 43.6004C232.94 46.9404 231.9 45.6004 231.3 47.0604C229.7 50.7604 231.3 50.3004 230.44 50.7604C227.56 52.2404 229.16 54.0604 228.16 54.7604C227.38 55.3337 226.85 56.186 226.683 57.1399C226.515 58.0935 226.722 59.0754 227.26 59.8804C228.04 60.8004 228.44 61.0004 228.28 61.7204ZM233.92 65.9404C231.6 65.3804 231.32 65.3404 229.92 62.5004C229.74 62.1404 230.18 62.2004 230.56 62.3604C236.08 64.6404 237.62 65.0004 233.92 65.9404ZM233 38.3404C223.38 23.0804 237 10.8204 247.54 11.4004C272.32 11.2604 277.66 43.8604 251.9 46.8004C248.54 47.2004 247.9 46.2404 246.86 47.5804C244.98 50.2404 246.2 51.4404 244.66 51.0404C241.515 50.2372 238.518 48.941 235.78 47.2004C233.24 45.6604 237.78 45.2004 236.46 42.3404C235.14 39.4804 235.16 41.6604 233 38.3404ZM233.1 47.4604C243.7 55.4604 247.9 51.3404 244.7 55.0604C244.1 55.7604 241.78 54.5804 240.9 54.2604C236.7 52.6804 229.56 50.4004 233.18 47.4604H233.1ZM230.66 52.6204C230.98 52.3804 230.82 51.7004 231.28 51.7404C232.08 51.7404 231.02 52.5804 236.32 54.7004C241.62 56.8204 242.08 57.0604 243.12 57.1604C244.16 57.2604 243 59.4604 241 59.4204C237.76 58.3004 228.08 54.7404 230.74 52.6204H230.66ZM228.66 56.6204C229.54 55.2604 228.82 56.8204 233.38 58.7804C238.32 60.9204 240.1 61.7204 241.38 61.5604C241.72 61.5604 241.7 61.8004 241.56 61.9804C240.74 63.0804 239.8 64.7004 238.26 63.7204C234.36 61.0004 226.64 59.8804 228.78 56.5404L228.66 56.6204Z" fill="#000001"/>
<path d="M267.82 181.72C266.26 180.72 266.86 180.6 267.2 179.12C268.58 173.12 268.52 173.54 268.44 173.12C268.43 172.952 268.373 172.788 268.277 172.648C268.18 172.508 268.047 172.4 267.892 172.332C267.737 172.263 267.567 172.238 267.398 172.262C267.23 172.285 267.072 172.353 266.94 172.46C264.94 174.04 262.66 174.98 260.62 176.46C259.68 177.1 256.52 173.9 255.8 174.18C254.74 174.62 253.96 175.14 254.3 176.44C255.72 181.58 255.28 181.04 254.54 181.52C252.36 182.92 250.54 183.52 250.68 185.3C250.68 186.74 255.04 186.64 256.68 186.66C258.32 186.68 257.98 187.38 258.54 188.3C261.04 192.42 262.54 194.8 263.78 190.12C264.86 186.24 263.52 186.66 270.16 186.44C273 186.22 270.86 183.66 267.82 181.72ZM266.4 184.62C264.06 184.92 263.08 184.98 262.82 186.4C262.607 187.557 262.278 188.688 261.84 189.78C261.737 189.703 261.643 189.617 261.56 189.52C257.56 183.64 260.66 185.16 253.32 184.56C251.86 184.56 255.88 183.2 257.06 180.56C257.5 179.58 255.44 175.92 256.6 176.56C260.12 178.42 258.98 177.74 259.42 178C260.74 178.82 264.66 175.6 266.16 175.16C266.7 178.46 262.9 180.46 266.48 182.98C269 184.72 268.66 184.34 266.4 184.62Z" fill="#000001"/>
<path d="M245.52 208.78C239.84 205.78 235.26 208.02 228.26 204.06C226.25 202.652 223.805 202 221.36 202.22C219.66 202.66 204.9 196.22 201.72 189.22C201.047 187.395 200.695 185.465 200.68 183.52C200.54 182 208.02 188.52 215.26 184.96C215.448 184.895 215.613 184.777 215.735 184.62C215.858 184.463 215.933 184.275 215.952 184.078C215.97 183.88 215.933 183.68 215.842 183.503C215.752 183.327 215.612 183.18 215.44 183.08C212.818 181.98 210.608 180.083 209.12 177.66C208.88 177.26 208.6 176.46 209.52 177.08C217.66 182.62 228.34 176.7 225.08 175.08C222.182 174.345 219.608 172.672 217.76 170.32C217.36 169.82 217.76 169.9 218 170.04C224 172.72 232.44 172.34 237.2 167.76C239.68 165.36 231.72 164.34 229.98 154.98C228.24 145.62 233.98 139.48 234.98 123.5C235.5 115.18 229.3 99.7601 225.38 94.0001C214.72 78.3601 199.38 70.7201 180.24 65.2801C175.71 64.2373 170.987 64.3679 166.52 65.6601C165.72 65.9801 165.9 67.3001 166.86 67.1601C173.768 65.6349 180.99 66.5244 187.32 69.6801C195.12 73.3601 210.54 76.8401 222.24 93.3001C247.92 129.3 216.24 147.3 232.1 163.74C235.44 167.2 235.92 166.64 234.34 167.58C231.507 169.165 228.287 169.922 225.045 169.767C221.802 169.612 218.668 168.548 216 166.7C214.76 165.9 213.48 166.7 214.14 168.2C216.92 174.92 223.68 175.8 221.94 176.4C212.74 179.5 209.02 173.86 207.72 173.14C204.96 171.66 204.46 177.66 212.06 183.44C213.64 184.64 200.36 183.62 200.48 179.28C201.58 142.72 198.06 158.76 208.68 157.28C217.5 156.02 227.68 143.52 225.24 134.7C223.6 128.84 218.18 129.52 216.82 128.54C203.64 119.08 196.64 116.16 192.82 110.16C188.3 103.08 171.44 100.64 165.5 108.98C165.28 109.3 165.1 109.38 164.8 108.98C164.252 108.321 163.572 107.782 162.807 107.395C162.04 107.009 161.203 106.783 160.347 106.732C159.49 106.682 158.633 106.807 157.827 107.101C157.022 107.395 156.283 107.85 155.66 108.44C155.4 108.72 155.28 108.72 155.18 108.32C154.14 104.04 148.32 102.02 143.54 101.76C142.8 101.76 142.66 102.02 144.58 97.0401C144.94 96.1201 147.02 95.9201 150.1 98.1201C152.88 99.8401 150.94 93.4001 146.52 93.5001C144.52 93.5001 152.36 84.9201 153.58 83.5001C154.22 82.7801 154.4 84.0201 155.98 84.1601C156.64 84.1601 157.06 83.1201 156.26 82.5001C146 74.5001 156.88 58.0601 166.56 63.3601C168.56 64.5001 169.54 62.3801 167.6 61.3601C160.76 58.0201 153.02 62.5801 150.86 70.0601C150.58 70.9801 150.52 69.9201 145.86 71.0001C143.773 71.4929 141.853 72.5298 140.298 74.0053C138.742 75.4808 137.603 77.3423 137 79.4001C136.73 80.3443 136.203 81.1956 135.48 81.8601C130.88 86.8201 133.08 93.1401 138.32 94.7201C138.7 94.8401 140.2 95.0201 140.32 94.3201C140.64 93.1601 139.7 93.1401 138.96 92.9201C131.96 90.8201 136.06 81.4001 136.84 84.7401C137.62 88.0801 142.14 92.2801 143.12 90.5601C144.1 88.8401 136 86.7601 139 79.2601C141.36 73.2601 150.3 71.2601 150.28 73.6001C150.16 81.0001 153.44 81.6001 152.64 82.4401C148.64 86.6201 146.64 88.1001 144.18 93.3001C144.003 93.7488 143.668 94.1183 143.24 94.3401C140.22 95.7401 139.1 100.34 140.26 99.6601C142.74 98.0001 141.94 98.1001 141.32 101.2C141.02 102.66 139.02 101.32 133.98 104.04C125 109 129.36 120.78 137 126C139.9 128 131.28 130.78 139.84 151.32C139.88 151.386 139.903 151.461 139.908 151.538C139.913 151.616 139.9 151.693 139.868 151.764C139.837 151.834 139.788 151.896 139.728 151.945C139.668 151.993 139.597 152.025 139.52 152.04C136.375 153.456 132.97 154.205 129.52 154.24C128.32 154.12 128.36 155.44 128.72 156.4C131.7 164.4 139.96 165.14 138.4 166.06C132.1 169.82 132.24 169.12 130.56 169.52C130.25 169.55 129.965 169.702 129.767 169.942C129.568 170.182 129.473 170.49 129.5 170.8C129.36 172.42 130.62 173.34 132.38 174.6C139.9 179.96 147.3 176.6 147.68 176.96C147.088 178.977 146.133 180.867 144.86 182.54C142.1 186.04 149.96 186.54 156.5 182.42C156.618 182.39 156.742 182.39 156.86 182.42C156.637 183.873 156.315 185.31 155.9 186.72C154.94 189.9 152.52 188.72 151.6 192.02C150.78 195.08 135.26 199.36 133.24 200.64C132.58 201.04 133.06 201.34 127.02 189C118.46 171.58 119.02 171.6 116.82 172.34C111.7 173.98 113.48 174.84 110.28 168.34C108.64 165 71.2204 174.76 59.7404 188.42C57.3204 191.42 58.7804 192.16 59.6004 191.42C60.0604 191.02 63.2604 184.7 81.2604 176.92C89.7992 173.22 98.8129 170.728 108.04 169.52C109.08 169.4 108.66 169.1 110.72 173.66C111.24 174.82 61.2404 190.24 60.0004 191.82C58.7604 193.4 56.0004 192.9 56.8404 192.26C57.0262 192.133 57.1565 191.942 57.2049 191.722C57.2532 191.502 57.2159 191.273 57.1004 191.08C53.1004 181.82 48.5404 181.08 49.1004 179.08C49.1004 178.7 47.3404 174.56 47.6604 173.96C47.9804 173.36 57.4204 181.76 57.1004 187.3C57.1004 188.7 59.3404 189.3 58.9804 186.74C57.9604 179.24 47.9804 169.04 45.3404 172.28C44.8804 172.82 46.8204 176.76 46.8604 177.94C45.5804 177.56 38.5604 171.94 36.3404 174.72C35.8404 175.32 36.0804 175.4 39.2004 181.16C39.9804 182.62 37.7404 180.98 35.5204 179.66C28.8604 175.66 31.5204 179.52 35.0604 187.02C74.4804 268.2 77.6204 273.02 77.2204 275.26C77.0172 276.457 77.1259 277.685 77.5357 278.827C77.9457 279.968 78.643 280.987 79.5604 281.78C79.8705 282.1 80.094 282.493 80.2094 282.925C80.3249 283.355 80.3287 283.808 80.2204 284.24C80.0004 289.18 83.5404 288.38 83.5004 291.14C83.5217 293.015 84.2337 294.817 85.5004 296.2C88.5404 298.42 87.2404 294.08 84.5404 318.88C83.7804 325.82 85.9404 331.48 87.1204 335.78C89.6204 344.74 99.1204 349.66 105.72 349.78C106.4 349.78 106.68 349.54 105.72 352.52C102.66 362.1 106.54 364.08 101.94 369.96C101.127 371.142 100.656 372.527 100.58 373.96C100.606 374.152 100.697 374.328 100.837 374.46C100.978 374.592 101.159 374.672 101.352 374.687C101.544 374.7 101.735 374.648 101.894 374.537C102.052 374.427 102.167 374.265 102.22 374.08C103.18 370.5 106.22 368.94 106.34 363.94C106.34 363.06 106.46 357.54 106.66 356.7C108.44 349 108.06 349.8 109.08 349.64C115.58 348.6 116.96 344.96 120.62 340C123.18 336.52 128.62 313.32 130.32 296.98C130.32 296.34 130.32 295.68 130.9 295.24C131.48 294.8 134.36 276.94 134.3 275.24C134.3 274.58 133.14 274.32 132.9 274.92C132.24 276.5 131.24 286.3 129.98 292.8C129.84 293.6 129.52 293.1 126.52 290.98C122.52 288.14 121.94 288.82 116.96 287.4C108.96 285.06 110.96 286.24 115.42 283.4C121.42 279.52 121.02 275.9 120.34 275.04C119.66 274.18 117.5 274.68 120.34 273.86C146.8 266.2 156.94 263.32 160.56 261.86C163.06 260.9 162.56 260.62 161.96 259.98C161.96 259.98 158.16 252.26 133.96 203C133.6 202.24 133.38 202.52 138.18 201C138.5 201 138.6 201 138.66 201.34C139.853 206.57 142.65 211.297 146.66 214.86C157.4 223.88 161.34 220.74 162.16 222.12C168.98 233.74 165.5 206.5 164.16 290.4C164.16 322.3 166.98 320.4 170.78 329.74C171.08 330.44 172.78 337.74 173.96 339.04C185.66 352.9 195.02 352.66 205.3 344.28C213.92 337.26 228.38 314.56 229.5 315.42C230.62 316.28 232.46 316.36 234.22 317.56C236.6 319.18 240.32 320.76 243.06 319.96C245.32 319.3 244.72 320.86 256.46 286.36C257.08 284.52 255.92 301.36 252 316.7C246.6 337.78 238 349.82 240 357.86C240.8 360.98 239.42 362.1 240 367.22C242 382.02 241.02 381.08 242.62 381.22C244.22 381.36 242.44 369.72 242.3 369.04C241.08 362.82 242.66 361.04 241.84 357.6C239.72 348.82 251.38 334.7 256.56 303.86C258.84 290.36 257.1 285.1 261.72 272.04C267.48 255.88 271.2 244.5 268.5 227.46C266.5 215 262.64 217.82 245.52 208.78ZM58.2004 194.78C64.4404 194.78 54.7404 180.98 88.9404 249.64C89.5404 250.86 87.3404 251.54 86.0604 251.78C85.3004 251.28 86.9804 254.06 68.6604 217.16C57.0004 193.82 57.0004 194.76 58.2004 194.76V194.78ZM38.4404 176.2C41.1004 175.88 52.4404 183.62 55.1804 191.34C50.5207 189.022 46.0474 186.348 41.8004 183.34C41.4204 181.72 38.7804 177.36 38.4404 176.18V176.2ZM76.3004 267.48C75.6404 266.52 34.3004 181.84 34.0204 181.14C34.3404 181.02 33.2604 180.48 50.7804 190.94C56.4004 194.3 53.1404 190.04 62.6404 209.32C84.9204 254.52 84.5004 252.44 83.5404 252.78C71.5604 256.88 77.5204 264.74 76.3004 267.46V267.48ZM77.9604 270.36C77.9842 269.342 78.0779 268.325 78.2404 267.32C78.7404 264.94 76.1204 259.32 78.9204 257.54C82.5439 255.337 86.3924 253.527 90.4004 252.14C90.8802 251.77 91.4042 251.46 91.9604 251.22C94.6804 250.62 92.4204 256.48 87.4404 259.22C83.4404 261.48 83.0404 261.7 82.4804 262.38C81.9204 263.06 82.4804 263.92 83.0004 263.74C86.2804 262.78 91.7204 256.92 80.5604 269.74C77.9204 272.8 78.3204 273 77.9604 270.34V270.36ZM93.2804 258.36C93.6204 259.2 93.5004 259.06 90.3804 259.68C90.3804 259.68 90.3804 259.68 90.3804 259.52C92.1204 258.46 92.3804 257.26 92.7204 257.34C93.0604 257.42 93.0004 257.74 93.2804 258.42V258.36ZM109.76 276.24C107.526 277.135 105.208 277.805 102.84 278.24C100.968 278.333 99.1625 278.965 97.6404 280.06C96.2404 281.38 95.2004 282.06 95.9204 282.8C96.1804 283.08 96.4204 283.3 96.8004 282.9C99.2204 280.38 101.72 280.5 106.8 279.48C108.32 279.18 108 278.42 110.42 278.18C112.896 277.755 115.346 277.193 117.76 276.5C119.76 276.5 118.22 280.74 107.76 284.78C102.68 286.78 100.32 287.32 98.5404 289.98C98.0604 290.7 97.6604 291.78 98.5404 292.18C100 292.84 99.1204 289.78 104.34 287.88C105.24 287.56 105.46 287.48 105.78 291.48C106.46 300.16 103.26 303.96 103 307.48C103 307.96 103.56 308.58 104.16 307.84C104.76 307.1 106.38 302.36 106.58 301.84C111.06 288.44 100.58 284.08 114.58 288.38C121 290.38 121.8 290.04 124.26 291.72C130.1 295.72 129.2 291.9 126.38 310.86C125.013 319.04 123.097 327.118 120.64 335.04C120.08 336.68 120.92 330.34 120.64 323.62C120.36 314.5 110.96 299.26 109.96 299.62C107.96 300.28 111.96 302.62 116.84 316.14C120.18 325.62 118.42 338.66 116.08 342.14C113.04 346.62 110.4 348.52 102.74 347.36C99.3044 346.842 96.0987 345.318 93.5287 342.978C90.9585 340.64 89.1392 337.592 88.3004 334.22C87.2204 329.78 85.4604 324.66 86.3004 319.28C90.3004 290.48 87.9004 303.82 92.9004 310.7H93.8004C93.5204 308.52 93.3204 308.7 90.6404 299.9C89.8004 297.1 89.7804 296.7 88.9004 296.14C85.1204 293.78 85.8204 293.4 85.0804 289.4C84.6204 286.98 81.6404 287.62 82.0204 284.22C82.1244 283.262 81.9824 282.292 81.608 281.403C81.2335 280.515 80.639 279.735 79.8804 279.14C78.5004 277.84 78.8204 274 81.2204 271.5C85.5004 267.06 85.9804 265.08 90.1404 262C90.8004 261.5 90.9604 261.68 97.1204 260.24C98.4604 259.92 97.6404 259.6 100.46 259.1C108 257.74 109.9 255.1 109.82 256.78C109.648 258.133 109.102 259.412 108.243 260.47C107.385 261.53 106.248 262.33 104.96 262.78C103.339 263.725 101.623 264.495 99.8404 265.08C87.8404 267.8 88.4804 275.84 90.4404 273.54C93.0004 270.54 92.6204 269.92 93.5804 271.68C94.3004 273 93.9404 272.4 91.5804 274.52C89.5804 276.32 82.9004 281.72 86.1404 281.24C86.6004 281.24 86.8604 280.94 91.1004 277.38C94.1204 274.82 95.3404 272.52 105.1 272.42C110.72 272.42 115.1 269.84 118.92 269.1C120.38 268.86 120 273.54 109.76 276.3V276.24ZM95.9604 271.8C95.7004 271.56 95.8204 271.94 94.6804 269.62C94.4204 269.06 94.8604 268.9 97.6604 268.04C98.0204 267.92 98.3404 268.58 99.1604 270.4C99.3404 270.88 99.0004 271 95.9604 271.86V271.8ZM159.2 260.28C157.6 260.78 121.7 271.42 121.64 271.44C121.22 271.56 120.88 271.6 121.08 271.2C121.94 269.36 121.08 266.66 118.82 267.2C111.34 268.78 112.62 270.5 101.82 270.52C101 270.52 101.36 270.76 99.8204 267.72C99.6604 267.4 99.8204 267.2 100.1 267.12C102.248 266.478 104.305 265.565 106.22 264.4C113.3 260.94 113.22 251.96 107.62 254.82C105.021 256.007 102.267 256.822 99.4404 257.24C98.1834 257.633 96.9484 258.095 95.7404 258.62C95.1804 258.82 94.3004 256.62 94.0404 255.96C93.7804 255.3 96.6404 248.78 92.5404 248.88C89.0404 249.82 93.6404 253.2 63.0404 193.38C62.2404 191.82 61.4204 192.66 74.4804 188.34C79.7804 186.6 111.26 176.18 117.18 174.04C117.74 173.84 117.18 173 124.1 187.14C160.12 261.58 160.68 259.88 159.2 260.34V260.28ZM203.66 123.62C203.66 122.82 203.26 122.82 213.06 129.18C214.34 130 211.36 129.66 208.32 133.18C207.74 133.86 207.72 133.82 206.88 133.42C203.24 131.8 203.14 127.84 203.66 123.68V123.62ZM168.36 109C172.36 105.72 185.36 105.8 190.36 111.46C194.72 116.42 183.92 134.56 173.26 127.1C168.14 123.52 163.38 113 168.36 109ZM142.52 118.08C142.52 117.08 141.4 104.64 143.02 104.72C146.062 104.612 149.068 105.405 151.66 107C155.96 109.82 151.08 129.3 140.6 125.44C139.48 125 142.44 122.38 142.52 118.08ZM137 105.7C138.04 105.38 139 105.14 140.16 104.86C140.52 104.86 140.7 104.86 140.66 105.26C139.62 114.28 142.54 116.84 139.08 123.76C138.68 124.6 138.6 124.64 137.92 124.1C129.54 117.26 127.2 108.76 137 105.7ZM140.7 127.7C142.518 128.102 144.413 127.998 146.175 127.398C147.938 126.799 149.503 125.727 150.7 124.3C151.84 123.14 150.7 127.56 156.3 128.58C157.46 128.8 157.9 127.38 157.2 127.04C155.5 126.18 153.9 125.78 152.98 122.92C152.26 120.7 159.18 122.48 158.98 117.28C158.98 115.9 157.64 115.86 157.34 117.1C156.8 119.24 157.34 118.92 154.14 119.52C153.86 119.52 153.78 119.52 153.88 119.18C155.64 113.64 155.08 112.06 156.88 110.72C157.66 110.264 158.548 110.026 159.45 110.031C160.353 110.036 161.238 110.283 162.013 110.747C162.788 111.211 163.423 111.875 163.855 112.669C164.285 113.463 164.495 114.358 164.46 115.26C164.72 121.8 171.06 131.38 178.46 131.1C188.94 130.68 191.96 119.88 193.86 118.7C195.12 117.9 196.44 118.4 201.76 121.66C203.32 122.6 198.78 132.08 206.18 135.32C206.96 135.66 205.26 136.7 207.16 137.32C207.46 137.32 208.54 135.54 210.26 134.1C218.7 126.96 228.68 132.76 220.26 146.24C218.58 148.9 216.9 151.2 209.56 154.24C200.02 158.24 198.88 133.82 198.7 178.24C198.7 190.84 200.06 194.62 217.76 203.2C218.46 203.54 212.32 208.12 212.28 208.14C201.62 215.78 207.88 212.14 196.08 216.88C194.08 217.64 185.82 221.06 185.68 219.8C184.08 206.42 180.88 203.36 178.68 195.52C176.68 188.6 174.44 186.84 174.24 184.52C173.96 181.12 166.24 174.52 165.3 173.32C164.96 172.92 165 172.76 165.5 172.58C188.04 165.24 184.62 159.66 182.34 161C177.7 163.7 156.92 171.14 147.24 160.04C136.5 148.08 136.26 126.42 140.66 127.78L140.7 127.7ZM147 183C148.408 180.508 149.408 177.808 149.96 175C150.012 174.797 149.997 174.582 149.92 174.387C149.842 174.192 149.705 174.027 149.528 173.913C149.352 173.8 149.143 173.747 148.933 173.758C148.723 173.77 148.523 173.848 148.36 173.98C141.42 178.66 129.18 171.32 132.08 171.1C133.82 170.96 145.5 165.58 139.86 163.7C133.2 161.48 130.18 156.32 130.98 156.08C134.105 155.873 137.17 155.129 140.04 153.88C142.68 152.62 140.04 158.88 152.34 166.46C151.782 167.083 151.472 167.892 151.472 168.73C151.472 169.568 151.782 170.377 152.34 171C155.78 175.2 158.34 177 158.16 177.4C157.86 178.04 158.16 178.92 157.38 179.4C154.4 181.42 150.44 183.7 147 183ZM160.16 219.34C151.1 217.92 142.26 208.96 140.44 201.44C140.1 200.02 139.86 200.16 141.38 199.64C145.84 198.06 148.14 196.36 147.58 197.36C146.46 199.36 147.26 201.94 147.12 202.86C146.6 206.32 149 209.24 152.46 211.08C152.92 211.32 152.76 211.28 155.82 211.48C157.82 211 158.08 210.8 158.32 211.48C158.758 212.478 159.1 213.517 159.34 214.58C160.14 219 161.18 219.58 160.14 219.42L160.16 219.34ZM218.7 325.56C216.898 327.998 214.948 330.323 212.86 332.52C210.04 335.78 207.78 339.42 203.32 342.84C192.88 350.84 185.06 348.84 175.96 338.18C174.583 335.837 173.603 333.283 173.06 330.62C171.76 325.36 169.44 323.9 167.82 317.94C163.58 302.36 168.2 227.08 168.62 226.7C170.34 225.12 167.66 225.9 163.8 220.86C160.66 216.86 162.12 212.58 155.8 202.3C155.675 202.022 155.487 201.777 155.25 201.582C155.015 201.388 154.738 201.25 154.44 201.18C153.22 200.98 154.22 202.56 154.78 203.8C155.62 205.62 153.9 204.46 153.58 204.44C152.76 204.34 152.2 205.28 155 206.92C155.34 207.12 156.26 207.14 156.5 207.46C156.735 207.907 156.903 208.385 157 208.88C157 209.16 157 209.24 156.74 209.26C154.54 209.52 153.58 209.98 151.76 208.44C150.72 207.56 148.86 205.56 148.9 204.2C149 200.2 148.32 198.2 151.76 196.2C153.1 195.46 153.34 194.2 153.42 192.72C153.56 190 156.3 191.48 157.42 187.94C159.02 182.9 166.34 187.34 165.28 184.52C162.04 176.02 151.88 170.52 153.28 168.08C154.6 165.94 159.4 169.92 160.66 171.36C164.54 175.74 171.66 181.7 172.3 185.86C172.7 188.34 174.44 189.22 176.18 195.06C179.32 205.54 182.88 210 183.3 221.58C183.96 239.58 202.54 308.66 202.56 308.72C203.08 309.8 204.32 309.36 204.26 308.22C203.54 294.8 196.06 280 197.9 279.9C200.933 279.69 203.97 280.283 206.7 281.62C208.54 283 219.9 293.1 220.9 294.04C225.04 297.84 229.66 299.16 232.64 303.72C234.76 306.86 235.32 302.18 218.68 325.64L218.7 325.56ZM158.7 183.28C159.62 178.56 159.52 178.74 160.08 179.28C161.083 180.38 161.9 181.637 162.5 183C162.92 183.78 161.64 183.5 161.62 183.42C158.76 183.94 158.42 184.18 158.58 183.36L158.7 183.28ZM244.54 314.52C244.457 314.687 244.342 314.837 244.2 314.96C244.09 314.85 243.99 314.728 243.9 314.6C238.46 306.6 235.72 304.6 234.44 302.32C232.82 299.46 228.14 296.5 225.32 294.78C223.46 293.64 219.84 289.92 216.98 287.66C210.52 282.56 210.36 279.34 201.14 278.08C199.74 277.88 197.6 278.5 197.26 278.22C196.92 277.94 197.26 277.46 198.88 274.34C200.238 271.523 201.867 268.843 203.74 266.34C212.02 254.66 210.34 255.26 213.16 250.44C218.12 241.88 219.42 242.92 227.36 234.44C238.24 222.8 238.78 222.54 239.5 220.7C239.82 219.84 239.06 219.44 238.66 219.86C213.78 246.14 216.16 240.86 211.06 250.38C199.76 271.5 206.36 256.8 196.72 274.18C195.7 276 184.72 225.82 185.78 222.46C186.08 221.5 187.2 223.04 195.78 219.4C208.76 213.86 201.92 218.36 212.78 210.36C218.28 206.36 220.78 201.9 226.36 205.24C233.56 209.56 236.16 207.78 242.92 209.78C246.5 210.84 246.14 212.02 261.16 218.08C265.56 219.86 266.18 223.74 266.7 227.56C269.28 247.7 267.48 250.14 244.42 314.6L244.54 314.52Z" fill="#000001"/>
<path d="M239.46 29.6601C239.82 29.6601 240.08 29.6601 239.96 30.2801C239.2 33.5401 243.62 36.2801 242.74 37.8601C241.543 40.1466 240.702 42.6011 240.24 45.1401C240.14 45.7401 240.68 45.4201 240.9 45.6001C241.74 46.3201 242.14 42.5601 244.3 38.5001C245.76 35.8001 241.52 33.1001 241.62 30.7801C241.74 27.8001 242.9 29.5001 245.62 30.3601C247.14 30.8401 248.3 30.3601 248.72 31.3601C248.992 31.8945 249.445 32.3136 250 32.5411C250.555 32.7688 251.172 32.7896 251.74 32.6001C253.58 32.1201 253.1 33.5401 255.26 34.0001C257.42 34.4601 257.4 34.3601 257.4 35.1601C257.4 35.4401 257.4 35.7401 257.06 35.8201C256.032 36.171 255.052 36.648 254.14 37.2401C253 37.7801 253.5 36.8601 251.6 38.1001C248.74 39.9601 249.22 38.7801 248.02 39.7201C246.02 41.3401 241.64 45.9601 243.04 47.0601C244.44 48.1601 244.6 45.2801 247.44 42.6801C250.28 40.0801 249.84 41.3401 250.8 40.6801C252.8 39.4401 253.08 39.2601 253.38 39.2401C255.1 39.1001 256.42 37.6601 257.72 37.5401C259.48 37.3801 259.02 35.8401 259.4 35.9601C259.78 36.0801 259.78 36.4601 259.92 36.8001C261.18 39.9401 265.1 32.5401 262.08 31.5601C259.06 30.5801 258.26 32.7001 257.78 32.5801C253.14 31.5401 256.02 32.1401 253.34 30.7601C252.1 30.1201 251.12 31.6201 250.12 30.2001C248.54 27.9201 249.68 30.2001 242.26 27.2401C241.74 27.0401 241.46 26.3201 241.06 25.8401C240.66 25.3601 240.04 25.3601 239.3 25.1601C237.2 24.6601 235.96 29.0001 239.46 29.6601ZM261.22 33.2401C261.84 33.4201 261.38 34.8801 260.82 34.5801C258.7 33.5001 260.48 33.0001 261.22 33.2401ZM239.22 26.7201C239.46 26.7201 239.88 27.4201 240.1 27.7601C239 28.6601 238.48 27.0001 239.2 26.7201H239.22Z" fill="#000001"/>
<path d="M253.42 245.12C246.78 248.52 237.92 254.7 217.42 255.96C216.64 255.96 215.86 256.32 215.96 257.12C216.06 257.92 233.06 258.82 253.96 246.76C256.72 245.14 255.24 244.2 253.42 245.12Z" fill="#000001"/>
<path d="M220.54 250.58C231.24 247.24 245 236.58 244.12 235.42C242.38 233.2 237.98 242.12 219.96 249.16C219.32 249.4 219.6 250.38 220.54 250.58Z" fill="#000001"/>
<path d="M213 114.46C213.34 114.82 221.24 121.98 222.1 119.76C222.42 118.92 221.9 118.68 219.14 116.76C204.76 107 198.66 87.2402 191.82 83.0002C191.36 82.7202 190.98 83.8202 191.16 84.1602C192.732 85.8926 194.157 87.7522 195.42 89.7202C203.8 103.12 201.72 102.24 213 114.46Z" fill="#000001"/>
<path d="M214.02 215.9C209.48 218.6 209.38 219.9 207.02 220.92C205.46 221.6 193.02 226.46 194.08 228.28C194.66 229.22 194.56 228.46 208.08 222.44C210.003 221.243 211.835 219.907 213.56 218.44C220.4 213.5 221.36 213.58 221.02 212.44C220.42 210.62 216.7 214.32 214.02 215.9Z" fill="#000001"/>
<path d="M208.82 150.08C212.94 150.08 214.32 145.36 213 142.82C212.832 142.543 212.732 142.229 212.71 141.904C212.69 141.58 212.748 141.256 212.88 140.96C213.72 138.96 217.9 135.18 218.3 140.54C218.3 141.18 219.34 141.38 219.78 140.54C220.058 139.981 220.173 139.356 220.113 138.735C220.053 138.114 219.82 137.523 219.442 137.027C219.063 136.532 218.553 136.153 217.97 135.932C217.387 135.712 216.753 135.659 216.14 135.78C212.9 136.48 209.36 140.6 211.08 143.94C211.66 145.08 211.08 147.44 209.88 147.72C207.5 148.24 207.34 147.12 206.76 148.2C206.18 149.28 207.46 150.08 208.82 150.08Z" fill="#000001"/>
<path d="M195 59.0001C195.12 57.6401 194.72 53.8201 198.1 52.9001C200.82 52.1401 202.32 52.4001 203.54 50.2801C204.58 48.4801 203.54 47.9201 204.52 46.0601C207.8 40.0601 206.12 40.9801 210.52 39.0601C222.28 33.8401 212.52 27.1801 211.48 30.5401C210.94 32.1601 211.98 33.0801 212.68 31.5201C213.04 30.7001 216.86 33.6601 212.36 36.1201C208.2 38.3801 206.18 38.3601 205.06 41.2201C203.94 44.0801 202.14 45.9001 202.2 48.5401C202.2 50.4201 200.46 50.3601 198.44 50.7601C196.842 51.1978 195.442 52.1721 194.477 53.5196C193.512 54.8671 193.04 56.5056 193.14 58.1601C193.18 61.7601 194.74 62.1201 195 59.0001Z" fill="#000001"/>
<path d="M169.8 75.1402C168.507 75.1102 167.22 75.3548 166.028 75.8582C164.835 76.3615 163.762 77.112 162.88 78.0602C161.7 79.3202 162.88 80.4602 164.08 79.4402C164.975 78.5168 166.085 77.8318 167.312 77.4475C168.537 77.0632 169.84 76.992 171.1 77.2402C186.06 79.2402 187.1 97.7002 202.4 115.94C204.22 118.08 205.64 117.3 204.94 116.04C202.117 112.553 199.505 108.9 197.12 105.1C184.5 82.4602 183.28 77.1402 169.8 75.1402Z" fill="#000001"/>
<path d="M171 93.6998C170.3 94.4398 169.78 96.0398 170.82 95.6998C172.26 95.1198 173.62 93.4198 177.24 93.4598C182.26 93.4598 184.08 100.82 184.42 97.0798C184 91.1398 176.72 87.5598 171 93.6998Z" fill="#000001"/>
<path d="M174.46 117.24C175.54 117.24 175.6 116.52 175.88 115.42C175.56 113.3 173.88 113.42 173.48 114.64C173.08 115.86 173.28 117.18 174.46 117.24Z" fill="#000001"/>
<path d="M158.26 77.8001C158.26 79.1401 158.26 81.5801 159.64 81.3601C161.46 81.0801 158.46 77.6801 161.24 73.3601C161.548 72.7613 161.988 72.2388 162.523 71.8306C163.06 71.4225 163.68 71.1388 164.34 71.0001C164.572 70.9058 164.773 70.753 164.928 70.5565C165.082 70.3601 165.183 70.1271 165.22 69.8801C165.12 67.2401 158.18 70.1401 158.26 77.8001Z" fill="#000001"/>
<path d="M145 3.72006C145.6 3.88006 146.46 3.02006 147.42 2.86006C148.86 2.62006 152.68 2.50006 153.42 3.96006C155.8 8.54006 147.74 14.2601 146.76 20.5801C146.14 24.5801 150.34 25.6201 156.76 27.4001C162.3 28.9201 151.98 35.9801 155.14 40.2401C155.66 40.9201 157.14 42.2401 158.34 43.5001C161.36 46.6601 157.44 50.8801 159.42 51.3001C161.4 51.7201 162.86 45.1201 159.42 41.7801C155.6 37.9401 155.2 39.2801 159.26 32.1801C160.32 30.3201 160.9 27.0601 158.58 26.0601C156.26 25.0601 156.58 25.8001 151.02 23.6401C142.54 20.3801 158.66 10.7001 154.84 3.16006C153.96 1.00006 152.1 1.24006 149.56 1.00006C144.44 0.880062 144.26 3.52006 145 3.72006Z" fill="#000001"/>
<path d="M156.66 142.76C156.66 142.04 156.22 139.94 154.54 139.9C152.54 139.9 152.24 142.88 153.68 144.34C154.54 145.24 156.18 145.44 156.66 142.76Z" fill="#000001"/>
<path d="M149.36 113.86C149.2 111.86 147.62 111.86 147.36 112.62C146.1 114.88 148.72 117 149.36 113.86Z" fill="#000001"/>
<path d="M115 183.48C69.42 198.66 71 197.48 72.3 200C81.56 219.26 81.24 218.36 82.9 218.54C87.46 217.22 124.66 204.88 124.9 204.76C127.46 203.88 125.98 202.48 119.14 188.6C116.74 183.56 116.82 182.88 115 183.48ZM123.64 203.18L83 216.6C82.52 216.6 83.18 217.74 74.14 199.86C73.68 198.96 71.26 200.18 99.8 190.62C104.76 188.96 109.48 187.3 114.78 185.56C116.16 185.12 115.06 183.76 120.78 195.56C124.4 203.24 124.56 202.88 123.66 203.18H123.64Z" fill="#000001"/>
<path d="M112.68 201.72C112.42 201.72 86.5202 209.72 84.6802 210.6C83.7802 210.98 82.9602 212.18 84.0602 212.46C84.4202 212.46 113.68 203.92 115.22 202.14C114.42 200.66 113.74 201.68 112.68 201.72Z" fill="#000001"/>
<path d="M88.5406 199.98C91.8406 199.4 91.7206 198.34 93.6606 198.44C97.3606 197.94 98.7606 196.44 102.121 195.6C105.481 194.76 106.441 195 109.061 193.6C109.701 193.28 110.141 192.16 108.781 191.88C108.541 191.88 107.001 192.34 104.781 192.9C96.8806 194.9 95.7806 196.38 93.7406 196.34C91.3806 196.34 91.4806 197.3 87.9606 198.08C79.9606 199.86 81.2606 200.62 79.1206 200.72C78.8606 200.72 78.4406 201.34 78.3606 201.58C78.1806 202.3 80.3606 202.72 81.4006 202.14C83.6256 200.982 86.0469 200.25 88.5406 199.98Z" fill="#000001"/>
<path d="M95.3003 100.18C98.2203 96.3002 96.5003 96.8602 106.12 100.18C106.32 100.273 106.545 100.3 106.761 100.256C106.978 100.213 107.175 100.102 107.324 99.9397C107.473 99.7772 107.567 99.5715 107.591 99.3522C107.616 99.133 107.57 98.9117 107.46 98.7202C106.407 96.4353 105.191 94.2297 103.82 92.1202C103 91.0802 107.22 86.5802 107.3 84.1202C107.42 80.5002 100 86.5202 98.3803 84.4002C97.0803 82.7002 95.1003 80.8202 93.8003 78.7602C93.2203 77.8202 92.1003 77.4802 91.9203 78.6002C90.3803 88.8202 92.8603 86.3002 87.1603 88.5002C83.9803 89.7402 83.8803 89.7202 83.7003 90.7402C83.1403 93.9602 90.5803 94.4202 90.6003 95.8802C90.7203 102.46 90.4603 102.06 90.6003 103.44C90.6284 103.625 90.7061 103.799 90.8249 103.944C90.9439 104.089 91.0996 104.199 91.2758 104.262C91.4519 104.326 91.6419 104.34 91.8258 104.305C92.0096 104.269 92.1804 104.185 92.3203 104.06C93.4204 102.853 94.4173 101.555 95.3003 100.18ZM90.8003 93.4802C83.9603 90.9202 83.9603 91.4802 91.4803 88.7602C93.1203 88.1602 92.3403 84.5802 93.4803 81.5002C100.62 88.1802 94.6003 87.6202 105.04 85.2202C103.5 89.3402 100.3 90.5202 102.14 92.6602C103.169 94.0998 104.059 95.6333 104.8 97.2402C105.3 98.0802 102.8 97.2402 99.2603 95.9202C97.2603 95.1802 97.7203 93.6802 93.0003 100.28C91.1603 102.86 93.8203 94.6002 90.8003 93.4802Z" fill="#000001"/>
<path d="M56.8006 65.2199C57.7606 64.1799 57.7806 64.1799 58.6606 65.2199C59.5563 66.2851 60.2356 67.5148 60.6606 68.8399C61.0206 70.1199 59.6606 69.4399 59.2406 69.4599C57.2406 69.4599 58.0606 70.9599 58.5606 71.1999C63.4806 73.5799 65.6006 67.9199 65.7406 69.7799C65.9606 72.2999 65.9406 75.0399 66.0606 78.3399C66.0606 79.8399 67.2806 80.9799 68.3006 80.0599C69.3206 79.1399 72.0406 76.3799 75.9006 72.6199C82.2206 66.4399 82.4806 66.6199 82.4006 65.3999C81.4806 51.9999 80.4006 55.3999 84.8006 50.6199C90.1206 44.8799 100.801 33.1999 104.261 26.1999C109.601 15.6199 111.721 4.47994 106.741 3.91994C100.081 3.17994 88.5006 8.99993 82.7406 14.0599C78.6098 17.5973 74.7523 21.4416 71.2006 25.5599C59.2006 38.7399 62.6006 36.5999 57.2006 37.3199C46.3406 38.7199 50.1406 36.3799 36.6406 51.0999C34.9806 52.9199 36.1606 54.1599 37.2406 54.1599C40.4821 53.8213 43.7438 53.7144 47.0006 53.8399C46.4354 54.4248 46.0201 55.1378 45.7903 55.9178C45.5604 56.6979 45.5228 57.5221 45.6806 58.3199C46.0978 59.9051 46.9338 61.3488 48.1006 62.4999C48.7606 62.9199 49.2406 62.1799 48.9806 61.3999C48.8606 60.9999 46.8006 57.9599 47.4006 57.2199C48.0006 56.4799 49.5206 57.2199 53.9406 60.5799C55.1606 61.4999 52.8206 62.3799 50.8406 65.2999C49.7006 67.0199 51.7206 67.8999 52.2606 68.2999C52.8006 68.6999 53.3006 68.7799 53.8406 68.3999L56.8006 65.2199ZM47.0006 78.6799C33.0006 100.68 29.8806 123.72 40.6806 152.36C40.8806 152.86 41.5606 155.12 42.2406 154.66C44.4006 153.24 32.9806 135.24 36.7406 108.76C40.2006 84.3999 56.2806 70.3399 56.7406 68.2199C56.9806 67.1799 56.6006 66.7399 55.3606 67.2199C52.2966 70.8298 49.5023 74.6601 47.0006 78.6799ZM53.2406 57.7799C49.3406 54.8399 47.8006 56.1399 48.5406 54.8799C48.9006 54.2599 49.2606 53.5599 49.8406 53.8199C52.6206 54.0599 53.5806 55.1199 56.9406 57.3999C57.5206 57.7999 57.0606 58.2399 56.1406 59.1399C55.6006 59.7399 55.7206 59.6199 53.3206 57.7799H53.2406ZM53.0006 66.8199C51.5206 65.7999 50.8606 67.8799 68.6806 47.1199C69.5606 46.1199 70.6806 45.1199 71.2206 46.4599C71.2806 46.5199 53.1006 66.7799 53.0006 66.8199ZM63.7006 68.8199C61.9406 70.3199 63.5206 68.8199 60.4806 64.8199C59.0806 62.9799 58.9006 62.9799 59.1606 62.6799C60.7806 60.7799 60.4406 59.8799 64.3206 67.4599C64.7206 67.9999 64.3206 68.2999 63.7606 68.7799L63.7006 68.8199ZM68.3406 77.8599C67.7006 78.5199 68.0006 78.4999 67.3006 68.4799C67.3006 67.5399 75.3006 61.2799 77.8806 58.1999C80.4606 55.1199 79.8806 55.6399 80.7406 64.8399C81.1606 65.6599 81.0006 65.3399 68.4006 77.8199L68.3406 77.8599ZM87.0006 13.5999C91.0386 10.6196 95.5764 8.38443 100.401 6.99994C107.981 4.99994 107.141 6.99994 107.501 9.97993C107.306 12.8101 106.686 15.5948 105.661 18.2399C100.841 29.9999 101.261 28.9399 99.9406 26.5799C93.8206 15.6799 85.3606 14.6199 87.0006 13.5999ZM84.4206 15.5999C86.9806 13.1799 101.521 28.1199 99.4206 30.9199C93.2806 39.1599 71.9206 63.1599 66.2806 66.6199C65.1059 64.3339 63.7693 62.1349 62.2806 60.0399C61.7806 59.2999 61.7206 59.7999 68.7806 51.9399C72.7806 47.3799 73.9206 46.8599 72.5206 45.1399C71.9206 44.3999 70.3206 43.3199 69.3006 44.3599C68.2806 45.3999 67.7206 46.0999 62.7006 51.8599C58.0806 57.1399 59.0406 56.5399 57.4006 55.2999C50.8006 50.3199 49.6206 54.2399 53.8406 48.8599C63.3048 37.1303 73.4983 26.0083 84.3606 15.5599L84.4206 15.5999ZM48.2406 40.9999C49.0606 40.0399 49.0606 40.1999 58.8806 38.9999C60.4206 38.7999 56.0606 42.3399 52.8806 47.1399C52.1606 48.1799 49.4406 51.8199 48.3806 51.9599C48.3806 51.9599 38.3806 52.2599 38.3806 52.1999C37.9606 51.8399 43.3006 46.7399 48.2406 40.9999Z" fill="#000001"/>
<path d="M98.0604 202.56C102.06 201.4 102.32 201.04 103.74 201.02C104.075 201.042 104.407 200.943 104.675 200.742C104.943 200.54 105.129 200.248 105.2 199.92C105.2 197.62 97.2004 201.28 93.4204 201.92C89.9804 202.5 82.1604 204.78 81.0204 206.02C80.2204 206.9 80.6604 207.4 81.7404 207.46C85.7404 206.1 85.2004 205.92 86.6404 205.46C95.0004 203.18 89.2404 205.1 98.0604 202.56Z" fill="#000001"/>
<path d="M91 139C89.76 139.16 85.64 140.06 85 140.24C83.82 140.54 80.12 132.36 79.18 135.4C76.88 142.88 80.04 141.66 74.18 142.16C71.78 142.36 71.74 143 71.8 144.16C71.8 144.94 72.08 145.1 73.52 145.98C80.02 149.98 77.18 147.08 76.64 154.48C76.64 155.5 77.16 155.98 77.98 155.72C79.84 155.1 82.78 149.72 84.14 150.42C86.1077 151.101 88.1105 151.675 90.14 152.14C91.28 152.46 91.76 151.86 91.62 150.98C91.4 149.58 89.86 148.98 88.32 146.14C87.98 145.48 88.06 145.78 91.88 141.2C92.54 140.36 92.84 138.78 91 139ZM86.6 147C88.46 150.28 89.22 149.98 85.6 149.18C81.4 148.24 83.3 147.96 78.94 152.38C78.42 152.92 79.04 150.72 79.2 148.64C79.38 146.16 74.58 145.36 73.88 144.06C74.22 144.06 73.62 144.06 76.7 143.76C80.5 143.44 78.7 141.3 80.36 137.9C81.72 139.06 83.12 142.54 84.36 142.28C94.5 139.92 84.4 143.12 86.6 147Z" fill="#000001"/>
<path d="M83.5206 38.6398C93.1806 38.1398 92.5006 23.9998 83.2206 24.2198C73.0006 25.4598 74.8606 38.9998 83.5206 38.6398ZM82.4606 26.1798C83.2395 26.0417 84.0391 26.0777 84.8023 26.285C85.5656 26.4923 86.2735 26.866 86.8753 27.3792C87.4771 27.8925 87.9578 28.5325 88.283 29.2535C88.6083 29.9743 88.77 30.7583 88.7563 31.5492C88.7428 32.34 88.5545 33.118 88.2048 33.8273C87.8551 34.5368 87.3528 35.16 86.7338 35.6523C86.1148 36.1447 85.3945 36.4938 84.6246 36.675C83.8546 36.8562 83.0543 36.8647 82.2806 36.6998C81.0646 36.4408 79.9763 35.7672 79.2023 34.794C78.4283 33.821 78.0166 32.609 78.038 31.3658C78.0591 30.1225 78.512 28.9253 79.319 27.9793C80.1258 27.0333 81.2365 26.3972 82.4606 26.1798Z" fill="#000001"/>
<path d="M61.4604 171.68C60.1404 171.92 59.8804 173.68 61.5804 173.68C70.2604 173.54 70.7004 157.82 62.3404 157.94C61.4316 157.907 60.5241 158.035 59.6604 158.32C59.5404 157.18 61.6604 152.2 59.4204 148.32C56.9404 144.04 49.7604 144.32 47.4204 150.22C46.5222 152.772 46.1376 155.477 46.2886 158.178C46.4396 160.88 47.1234 163.523 48.3004 165.96C48.7604 166.86 49.9204 166.34 49.6404 165.14C43.6404 148.08 55.3804 143.68 58.0204 149.84C60.2204 154.98 55.4604 160.66 57.5204 161.84C58.9804 162.66 59.7204 159.44 62.5404 159.84C66.2004 160.48 66.8604 164.46 66.2604 167.12C65.2404 171.5 62.4804 171.48 61.4604 171.68Z" fill="#000001"/>
<path d="M40.7605 156.48C29.5805 138.12 26.7605 106.02 40.5805 79.86C43.7594 74.2863 47.3214 68.9402 51.2405 63.86C53.1005 62.04 51.2405 61.08 50.2205 62.24C38.6405 75.94 29.5605 95.78 29.5605 113.66C29.5605 139.86 36.1206 152.62 39.4005 156.54C41.0006 158.38 41.8205 158.22 40.7605 156.48Z" fill="#000001"/>
<path d="M31.4801 172.28C21.4801 175.42 22.6201 163.82 32.5201 167.84C32.6422 167.913 32.7791 167.96 32.9209 167.975C33.0629 167.992 33.2064 167.975 33.3418 167.93C33.4769 167.885 33.6006 167.81 33.7039 167.712C33.8074 167.613 33.8879 167.493 33.9401 167.36C34.4801 166.14 33.4201 165.84 32.4001 165.5C26.9401 163.68 33.0201 153.26 40.5801 165.98C41.2001 167.02 42.2601 166.3 42.0201 165.5C40.4201 159.8 34.0201 155.5 30.0201 159C29.1696 159.718 28.6006 160.715 28.4139 161.813C28.2273 162.912 28.4349 164.04 29.0001 165C24.2801 165.12 23.0001 167 22.4601 169.46C21.3801 175.26 30.7201 175.94 33.1001 173.66C34.0201 172.74 33.2601 171.72 31.4801 172.28Z" fill="#000001"/>
<path d="M17.9003 136.74C17.6003 136.14 17.4003 134.98 16.0203 135.82C10.4003 139.24 11.5403 138.7 10.0203 137.08C7.74031 134.7 7.16031 133.78 6.02031 134.06C5.52031 134.2 5.64031 135.22 5.76031 135.76C7.14031 142.16 7.58031 140.46 4.98031 141.42C4.38031 141.66 3.86031 141.94 1.42031 142.96C1.19048 143.066 0.995811 143.235 0.859311 143.447C0.722811 143.66 0.650146 143.908 0.650146 144.16C0.650146 144.413 0.722811 144.661 0.859311 144.873C0.995811 145.086 1.19048 145.255 1.42031 145.36C8.86031 148.14 7.18031 147.62 7.68031 150.76C8.26031 154.36 8.36031 155.26 9.12031 155.34C9.43015 155.382 9.74515 155.32 10.0163 155.165C10.2875 155.009 10.4998 154.769 10.6203 154.48C13.7403 146.9 11.7003 148.9 14.6203 149.42C19.6403 150.32 19.9003 150.82 20.6203 149.94C21.3403 149.06 19.8803 147.76 19.1603 146.94C14.4403 141.5 15.8403 145.1 17.9003 136.74ZM16.4203 147.68C15.3516 147.6 14.3138 147.286 13.3803 146.76C10.8603 145.94 10.8603 150.98 9.86031 151.84C9.61814 150.783 9.48415 149.704 9.46031 148.62C9.46031 146.42 8.26031 146.26 4.62031 144.26C3.82031 143.8 5.64031 143.62 7.70031 142.58C9.76031 141.54 8.12031 139.54 8.08031 138.14C8.08031 137.3 9.48031 139.32 10.3603 140.42C11.7203 142.12 11.8803 139.42 15.7003 138.28C15.0603 141.58 12.8403 142.44 14.9803 144.72C18.1003 148.06 17.2603 147.76 16.4203 147.68Z" fill="#000001"/>
</svg>
